G04*
G04 #@! TF.GenerationSoftware,Altium Limited,Altium Designer,20.0.10 (225)*
G04*
G04 Layer_Physical_Order=1*
G04 Layer_Color=32768*
%FSLAX44Y44*%
%MOMM*%
G71*
G01*
G75*
%ADD13R,2.4000X2.4000*%
%ADD14C,0.3000*%
%ADD15C,0.2000*%
%ADD16C,0.4500*%
%ADD17C,3.0000*%
G36*
X109992Y2508D02*
X67242D01*
X66918Y4008D01*
X67486Y4265D01*
X68467Y4790D01*
X69413Y5378D01*
X70317Y6026D01*
X71178Y6732D01*
X71990Y7493D01*
X72751Y8305D01*
X73457Y9165D01*
X74105Y10070D01*
X74693Y11015D01*
X75218Y11997D01*
X75677Y13011D01*
X76069Y14053D01*
X76392Y15118D01*
X76645Y16202D01*
X76826Y17300D01*
X76936Y18408D01*
X76972Y19520D01*
X76936Y20633D01*
X76826Y21740D01*
X76645Y22838D01*
X76392Y23922D01*
X76069Y24987D01*
X75677Y26029D01*
X75218Y27043D01*
X74693Y28025D01*
X74105Y28970D01*
X73457Y29874D01*
X72751Y30735D01*
X71990Y31547D01*
X71178Y32308D01*
X70317Y33014D01*
X69413Y33663D01*
X68467Y34250D01*
X67486Y34775D01*
X66472Y35234D01*
X65430Y35626D01*
X64365Y35950D01*
X63281Y36202D01*
X62183Y36384D01*
X61075Y36493D01*
X59963Y36529D01*
X58850Y36493D01*
X57743Y36384D01*
X56645Y36202D01*
X55561Y35950D01*
X54495Y35626D01*
X53454Y35234D01*
X52440Y34775D01*
X51458Y34250D01*
X50513Y33663D01*
X49608Y33014D01*
X48748Y32308D01*
X47936Y31547D01*
X47175Y30735D01*
X46469Y29874D01*
X45820Y28970D01*
X45233Y28025D01*
X44708Y27043D01*
X44248Y26029D01*
X43856Y24987D01*
X43533Y23922D01*
X43500Y23779D01*
X42000Y23952D01*
Y32500D01*
X27500D01*
X25500Y34500D01*
Y46750D01*
X16500D01*
Y34750D01*
X14250Y32500D01*
X2508D01*
Y66932D01*
X4008Y67553D01*
X7265Y64296D01*
X7471Y64119D01*
X7686Y63905D01*
X8045Y63598D01*
X8447Y63352D01*
X8884Y63171D01*
X9343Y63061D01*
X9814Y63024D01*
X20439D01*
X20488Y63021D01*
X20491Y62972D01*
Y58090D01*
X20528Y57619D01*
X20638Y57160D01*
X20819Y56724D01*
X21065Y56321D01*
X21372Y55962D01*
X36573Y40761D01*
X36932Y40454D01*
X37335Y40208D01*
X37771Y40027D01*
X38230Y39917D01*
X38701Y39880D01*
X79389D01*
X79860Y39917D01*
X80319Y40027D01*
X80755Y40208D01*
X81158Y40454D01*
X81517Y40761D01*
X103997Y63241D01*
X104000Y63241D01*
X104556Y63277D01*
X105102Y63386D01*
X105630Y63565D01*
X106129Y63811D01*
X106593Y64121D01*
X107011Y64488D01*
X107379Y64907D01*
X107688Y65370D01*
X107935Y65870D01*
X108114Y66398D01*
X108223Y66944D01*
X108259Y67500D01*
X108223Y68056D01*
X108114Y68602D01*
X107935Y69130D01*
X107688Y69630D01*
X107379Y70093D01*
X107109Y70750D01*
X107379Y71407D01*
X107688Y71870D01*
X107935Y72370D01*
X108114Y72898D01*
X108223Y73444D01*
X108259Y74000D01*
X108223Y74556D01*
X108114Y75102D01*
X107935Y75630D01*
X107688Y76129D01*
X107379Y76593D01*
X107011Y77012D01*
X107379Y77907D01*
X107688Y78370D01*
X107935Y78870D01*
X108114Y79398D01*
X108223Y79944D01*
X108259Y80500D01*
X108223Y81056D01*
X108114Y81602D01*
X107935Y82130D01*
X107688Y82630D01*
X107379Y83093D01*
X107011Y83512D01*
X106593Y83879D01*
X106129Y84188D01*
X105630Y84435D01*
X105102Y84614D01*
X104556Y84723D01*
X104000Y84759D01*
X103444Y84723D01*
X102898Y84614D01*
X102370Y84435D01*
X101870Y84188D01*
X101407Y83879D01*
X100988Y83512D01*
X100621Y83093D01*
X100311Y82630D01*
X100065Y82130D01*
X99886Y81602D01*
X99777Y81056D01*
X99741Y80500D01*
X99741Y80497D01*
X88643Y69399D01*
X87257Y69973D01*
Y91288D01*
X87227Y91746D01*
X87138Y92196D01*
X86990Y92631D01*
X86788Y93042D01*
X86533Y93424D01*
X86230Y93769D01*
X82795Y97204D01*
X82450Y97506D01*
X82069Y97761D01*
X81657Y97964D01*
X81223Y98111D01*
X80773Y98201D01*
X80315Y98231D01*
X55880D01*
X55609Y98412D01*
X55110Y98658D01*
X54582Y98837D01*
X54036Y98946D01*
X53480Y98983D01*
X52924Y98946D01*
X52378Y98837D01*
X51850Y98658D01*
X51350Y98412D01*
X50887Y98102D01*
X50468Y97735D01*
X50101Y97316D01*
X49791Y96853D01*
X49545Y96353D01*
X49366Y95826D01*
X49257Y95279D01*
X49221Y94724D01*
X49257Y94167D01*
X49366Y93621D01*
X49545Y93094D01*
X49791Y92594D01*
X50101Y92131D01*
X50468Y91712D01*
X50887Y91344D01*
X51350Y91035D01*
X51850Y90789D01*
X52378Y90610D01*
X52924Y90501D01*
X53480Y90464D01*
X54036Y90501D01*
X54582Y90610D01*
X55110Y90789D01*
X55609Y91035D01*
X55880Y91216D01*
X78862D01*
X80243Y89836D01*
Y67730D01*
X75349Y62837D01*
X73963Y63411D01*
Y71520D01*
X59963D01*
Y72520D01*
X58963D01*
Y86520D01*
X46258D01*
Y106854D01*
X50678Y111275D01*
X51458Y110790D01*
X52440Y110265D01*
X53454Y109806D01*
X54495Y109414D01*
X55561Y109090D01*
X56645Y108838D01*
X57743Y108656D01*
X58850Y108547D01*
X59963Y108511D01*
X61075Y108547D01*
X62183Y108656D01*
X63281Y108838D01*
X64365Y109090D01*
X65430Y109414D01*
X66472Y109806D01*
X67486Y110265D01*
X68467Y110790D01*
X69413Y111377D01*
X70317Y112026D01*
X71178Y112732D01*
X71990Y113493D01*
X72751Y114305D01*
X73457Y115166D01*
X74105Y116070D01*
X74693Y117015D01*
X75218Y117997D01*
X75677Y119011D01*
X76069Y120053D01*
X76392Y121118D01*
X76645Y122202D01*
X76826Y123300D01*
X76936Y124408D01*
X76972Y125520D01*
X76936Y126632D01*
X76826Y127740D01*
X76645Y128838D01*
X76392Y129922D01*
X76069Y130987D01*
X75677Y132029D01*
X75218Y133043D01*
X74693Y134025D01*
X74105Y134970D01*
X73457Y135875D01*
X72751Y136735D01*
X71990Y137547D01*
X71178Y138308D01*
X70317Y139014D01*
X69413Y139663D01*
X68467Y140250D01*
X67486Y140775D01*
X67006Y140992D01*
X67330Y142492D01*
X109992D01*
Y2508D01*
D02*
G37*
G36*
X52919Y140992D02*
X52440Y140775D01*
X51458Y140250D01*
X50513Y139663D01*
X49608Y139014D01*
X48748Y138308D01*
X47936Y137547D01*
X47175Y136735D01*
X46469Y135875D01*
X45820Y134970D01*
X45233Y134025D01*
X44708Y133043D01*
X44248Y132029D01*
X43856Y130987D01*
X43533Y129922D01*
X43281Y128838D01*
X43099Y127740D01*
X42990Y126632D01*
X42954Y125520D01*
X42990Y124408D01*
X43099Y123300D01*
X43281Y122202D01*
X43533Y121118D01*
X43856Y120053D01*
X44248Y119011D01*
X44708Y117997D01*
X45233Y117015D01*
X45718Y116235D01*
X40270Y110787D01*
X39967Y110442D01*
X39712Y110061D01*
X39509Y109649D01*
X39362Y109215D01*
X39280Y108802D01*
X39138Y108704D01*
X38116Y108240D01*
X37743Y108218D01*
X32547Y113413D01*
Y133916D01*
X32728Y134187D01*
X32975Y134687D01*
X33154Y135214D01*
X33262Y135761D01*
X33299Y136317D01*
X33262Y136873D01*
X33154Y137419D01*
X32975Y137947D01*
X32728Y138446D01*
X32419Y138910D01*
X32051Y139328D01*
X31632Y139696D01*
X31169Y140005D01*
X30670Y140252D01*
X30142Y140431D01*
X29595Y140539D01*
X29040Y140576D01*
X28484Y140539D01*
X27937Y140431D01*
X27410Y140252D01*
X26910Y140005D01*
X26447Y139696D01*
X26028Y139328D01*
X25661Y138910D01*
X25351Y138446D01*
X25105Y137947D01*
X24926Y137419D01*
X24817Y136873D01*
X24780Y136317D01*
X24817Y135761D01*
X24926Y135214D01*
X25105Y134687D01*
X25351Y134187D01*
X25532Y133916D01*
Y111960D01*
X25562Y111503D01*
X25652Y111053D01*
X25799Y110618D01*
X26002Y110207D01*
X26257Y109825D01*
X26559Y109480D01*
X32992Y103047D01*
Y84249D01*
X31607Y83674D01*
X29503Y85778D01*
X29144Y86084D01*
X28742Y86331D01*
X28305Y86512D01*
X27846Y86622D01*
X27376Y86659D01*
X19857D01*
X19386Y86622D01*
X18927Y86512D01*
X18491Y86331D01*
X18088Y86084D01*
X17729Y85778D01*
X13009Y81058D01*
X11509Y81680D01*
Y86253D01*
X15743Y90487D01*
X16049Y90846D01*
X16296Y91249D01*
X16477Y91685D01*
X16587Y92144D01*
X16624Y92615D01*
Y103987D01*
X16587Y104458D01*
X16477Y104917D01*
X16296Y105353D01*
X16049Y105756D01*
X15743Y106115D01*
X10544Y111314D01*
X10544Y111317D01*
X10508Y111873D01*
X10399Y112419D01*
X10220Y112947D01*
X9974Y113446D01*
X9664Y113910D01*
X9297Y114328D01*
X8878Y114696D01*
X8749Y115094D01*
Y116039D01*
X8878Y116438D01*
X9297Y116805D01*
X9664Y117224D01*
X9974Y117687D01*
X10220Y118187D01*
X10399Y118714D01*
X10508Y119261D01*
X10544Y119817D01*
X10508Y120373D01*
X10399Y120919D01*
X10220Y121447D01*
X9974Y121946D01*
X9664Y122409D01*
X9297Y122828D01*
X8878Y123196D01*
X8749Y123594D01*
Y124539D01*
X8878Y124938D01*
X9297Y125305D01*
X9664Y125724D01*
X9974Y126187D01*
X10220Y126687D01*
X10399Y127214D01*
X10508Y127761D01*
X10544Y128317D01*
X10508Y128873D01*
X10399Y129419D01*
X10220Y129947D01*
X9974Y130446D01*
X9664Y130910D01*
X9297Y131328D01*
X8878Y131696D01*
X8749Y132094D01*
Y133039D01*
X8878Y133438D01*
X9297Y133805D01*
X9664Y134224D01*
X9974Y134687D01*
X10220Y135187D01*
X10399Y135714D01*
X10419Y135817D01*
X6285D01*
Y137817D01*
X10419D01*
X10399Y137919D01*
X10220Y138447D01*
X9974Y138946D01*
X9664Y139410D01*
X9297Y139828D01*
X8878Y140196D01*
X8415Y140505D01*
X7915Y140752D01*
X7387Y140931D01*
X7078Y140992D01*
X7225Y142492D01*
X52595D01*
X52919Y140992D01*
D02*
G37*
G36*
X24500Y66033D02*
X22500Y63033D01*
X22480Y63413D01*
X22420Y63753D01*
X22320Y64053D01*
X22180Y64313D01*
X22000Y64533D01*
X21780Y64713D01*
X21520Y64853D01*
X21220Y64953D01*
X20880Y65013D01*
X20500Y65033D01*
Y67033D01*
X20880Y67053D01*
X21220Y67113D01*
X21520Y67213D01*
X21780Y67353D01*
X22000Y67533D01*
X22180Y67753D01*
X22320Y68013D01*
X22420Y68313D01*
X22480Y68653D01*
X22500Y69033D01*
X24500Y66033D01*
D02*
G37*
%LPC*%
G36*
X73963Y86520D02*
X60963D01*
Y73520D01*
X73963D01*
Y86520D01*
D02*
G37*
%LPD*%
D13*
X59963Y72520D02*
D03*
D14*
Y88463D01*
X60000Y88500D01*
X59963Y72520D02*
X77020D01*
X77500Y73000D01*
X83750Y66278D02*
Y91288D01*
X54173Y94724D02*
X80315D01*
X83750Y91288D01*
X69543Y56215D02*
X73688D01*
X83750Y66278D01*
X69256Y55928D02*
X69543Y56215D01*
X42750Y108307D02*
X59963Y125520D01*
X42750Y76000D02*
Y108307D01*
X29040Y111960D02*
X36500Y104500D01*
Y61750D02*
Y104500D01*
X41250Y57000D02*
X60000D01*
X36500Y61750D02*
X41250Y57000D01*
X29040Y111960D02*
Y136317D01*
D15*
X38701Y42889D02*
X79389D01*
X104000Y67500D01*
X76764Y46764D02*
X104000Y74000D01*
X39905Y46764D02*
X76764D01*
X74417Y50917D02*
X104000Y80500D01*
X40482Y50917D02*
X74417D01*
X23500Y58090D02*
Y66033D01*
Y58090D02*
X38701Y42889D01*
X28375Y58295D02*
Y78125D01*
Y58295D02*
X39905Y46764D01*
X31750Y59649D02*
Y79275D01*
Y59649D02*
X40482Y50917D01*
X23500Y66033D02*
Y76000D01*
X9423Y66424D02*
X9814Y66033D01*
X23500D01*
X9392Y66424D02*
X9423D01*
X5300Y70516D02*
X9392Y66424D01*
X5300Y70516D02*
Y88826D01*
X8500Y71842D02*
X10718Y69624D01*
X16744D02*
X18500Y71381D01*
X10718Y69624D02*
X16744D01*
X8500Y71842D02*
Y87500D01*
X18500Y71381D02*
Y76000D01*
X5328Y88996D02*
X10411Y94080D01*
X5328Y88853D02*
Y88996D01*
X5300Y88826D02*
X5328Y88853D01*
X6285Y111317D02*
X13615Y103987D01*
X8500Y87500D02*
X13615Y92615D01*
Y103987D01*
X6285Y102817D02*
X10411Y98690D01*
Y94080D02*
Y98690D01*
X27376Y83650D02*
X31750Y79275D01*
X13978Y77772D02*
X19857Y83650D01*
X27376D01*
X18500Y76000D02*
X18978Y76478D01*
Y77772D01*
X21657Y80450D01*
X26050D01*
X28375Y78125D01*
D16*
X29040Y136317D02*
D03*
X6285Y128317D02*
D03*
Y102817D02*
D03*
Y111317D02*
D03*
Y119817D02*
D03*
Y136817D02*
D03*
X77250Y88500D02*
D03*
X6750Y52500D02*
D03*
Y60250D02*
D03*
X37000Y36250D02*
D03*
X31000D02*
D03*
X53480Y94724D02*
D03*
X42750Y76000D02*
D03*
X97250Y51250D02*
D03*
Y46000D02*
D03*
X17000Y139000D02*
D03*
X39000Y131000D02*
D03*
Y139000D02*
D03*
X20000Y113000D02*
D03*
X14000D02*
D03*
X105000Y15000D02*
D03*
X95000D02*
D03*
X85000D02*
D03*
Y5000D02*
D03*
X95000D02*
D03*
X105000D02*
D03*
Y125000D02*
D03*
X95000D02*
D03*
X85000D02*
D03*
Y135000D02*
D03*
X95000D02*
D03*
X105000D02*
D03*
X69256Y55928D02*
D03*
X13500Y76000D02*
D03*
X18500D02*
D03*
X23500D02*
D03*
X104000Y67500D02*
D03*
Y74000D02*
D03*
Y80500D02*
D03*
X60000Y57000D02*
D03*
D17*
X59963Y19520D02*
D03*
Y125520D02*
D03*
M02*
