M48
;Layer_Color=9474304
;FILE_FORMAT=4:4
METRIC,LZ
;TYPE=PLATED
T1F00S00C0.2000
T2F00S00C1.9000
%
T01
X00085Y00005
X00095
Y00015
X00085
X00105
Y00005
X0009725Y00046
Y0005125
X00104Y000675
Y00074
Y000805
X0007725Y000885
X0005348Y00094724
X0004275Y00076
X000235Y00076
X000185
X000135
X0000675Y0006025
Y000525
X00031Y0003625
X00037
X0006Y00057
X00069256Y00055928
X00085Y00125
X00095
X00105
Y00135
X00095
X00085
X00039Y00139
Y00131
X0002904Y00136317
X00017Y00139
X00006285Y00136817
Y00128317
Y00119817
Y00111317
Y00102817
X00014Y00113
X0002
T02
X00059963Y0001952
Y0012552
M30
