M48
;Layer_Color=9474304
;FILE_FORMAT=4:4
METRIC,LZ
;TYPE=PLATED
T1F00S00C0.2000
T2F00S00C0.5000
T3F00S00C1.9000
%
T01
X0001775Y0003975
Y00046
Y0005225
X00018Y000615
X00032
X00012Y000805
X0000575Y0010975
Y00116
Y0012225
X0002725Y00126
X00033
X0003025Y0012025
X00064572Y00099362
X0006725Y00089
X00055997
X00076Y000835
Y0007525
X0009375Y0006925
X0010625Y000495
Y0004325
Y00037
X0007525Y0004525
X0006875Y0005575
X0007945Y0011225
X0008625Y001125
X00085Y001193
X00085806Y00129685
X000845Y001395
X00077875
X0007125
X0010425Y0010475
T02
X000065Y001385
X0001575
X000255
X0003525
T03
X00053Y000195
Y001255
M30
