G04*
G04 #@! TF.GenerationSoftware,Altium Limited,Altium Designer,20.1.12 (249)*
G04*
G04 Layer_Color=255*
%FSLAX44Y44*%
%MOMM*%
G71*
G04*
G04 #@! TF.SameCoordinates,15848DA5-C093-47F5-B49A-54F1C2627FDF*
G04*
G04*
G04 #@! TF.FilePolarity,Positive*
G04*
G01*
G75*
%ADD10C,0.2540*%
%ADD11C,0.2000*%
%ADD12C,0.1000*%
%ADD13C,0.1200*%
D10*
X5750Y103750D02*
G03*
X5750Y103750I-500J0D01*
G01*
D11*
X80059Y36500D02*
G03*
X80059Y36500I-559J0D01*
G01*
Y78499D02*
G03*
X80059Y78499I-559J0D01*
G01*
X11750Y70000D02*
Y73000D01*
X37250Y48000D02*
X40250D01*
X37500Y66500D02*
X40500D01*
X73750Y57250D02*
X76750D01*
X81250Y40750D02*
Y58750D01*
X101250Y40750D02*
Y58750D01*
X81250Y82749D02*
Y100749D01*
X101250Y82749D02*
Y100749D01*
X73750Y99249D02*
X76750D01*
X99000Y124500D02*
X102000D01*
X90500D02*
X93500D01*
D12*
X24500Y36000D02*
X47000D01*
X49750Y38750D01*
X58369Y51680D02*
Y56000D01*
Y40000D02*
Y44320D01*
X51512Y40000D02*
X58369D01*
X51512Y56000D02*
X58369D01*
X12500Y106750D02*
Y110750D01*
X16500D01*
X38500D02*
X42500D01*
Y106750D02*
Y110750D01*
Y80750D02*
Y84750D01*
X38500Y80750D02*
X42500D01*
X12500D02*
X16500D01*
X12500D02*
Y84750D01*
X58369Y70117D02*
Y74437D01*
Y58436D02*
Y62757D01*
X51512Y58436D02*
X58369D01*
X51512Y74437D02*
X58369D01*
X100750Y133750D02*
Y135750D01*
X91750Y133750D02*
Y135750D01*
X84250Y132750D02*
Y135750D01*
X74500Y132750D02*
Y135750D01*
X100750D01*
D13*
X44753Y83999D02*
Y79000D01*
X47252Y76501D01*
X49752Y79000D01*
Y83999D01*
X52251D02*
X57249D01*
X54750D01*
Y76501D01*
X64747D02*
X59748D01*
X64747Y81500D01*
Y82749D01*
X63497Y83999D01*
X60998D01*
X59748Y82749D01*
X5003Y39749D02*
Y34750D01*
X7502Y32251D01*
X10001Y34750D01*
Y39749D01*
X12500D02*
X17499D01*
X15000D01*
Y32251D01*
X19998D02*
X22497D01*
X21248D01*
Y39749D01*
X19998Y38499D01*
X78249Y118752D02*
X70751D01*
Y122501D01*
X72001Y123750D01*
X74500D01*
X75750Y122501D01*
Y118752D01*
Y121251D02*
X78249Y123750D01*
X72001Y126250D02*
X70751Y127499D01*
Y129998D01*
X72001Y131248D01*
X73250D01*
X74500Y129998D01*
Y128749D01*
Y129998D01*
X75750Y131248D01*
X76999D01*
X78249Y129998D01*
Y127499D01*
X76999Y126250D01*
X87249Y118752D02*
X79751D01*
Y122501D01*
X81001Y123750D01*
X83500D01*
X84750Y122501D01*
Y118752D01*
Y121251D02*
X87249Y123750D01*
Y131248D02*
Y126250D01*
X82250Y131248D01*
X81001D01*
X79751Y129998D01*
Y127499D01*
X81001Y126250D01*
X34249Y61752D02*
X26751D01*
Y65500D01*
X28001Y66750D01*
X30500D01*
X31750Y65500D01*
Y61752D01*
Y64251D02*
X34249Y66750D01*
Y69249D02*
Y71748D01*
Y70499D01*
X26751D01*
X28001Y69249D01*
X65752Y41499D02*
Y34001D01*
X70750D01*
X73249D02*
X75748D01*
X74499D01*
Y41499D01*
X73249Y40249D01*
X103251Y82003D02*
X110749D01*
Y85752D01*
X109499Y87002D01*
X104501D01*
X103251Y85752D01*
Y82003D01*
Y89501D02*
X110749D01*
Y93250D01*
X109499Y94499D01*
X104501D01*
X103251Y93250D01*
Y89501D01*
X104501Y96998D02*
X103251Y98248D01*
Y100747D01*
X104501Y101997D01*
X105750D01*
X107000Y100747D01*
Y99498D01*
Y100747D01*
X108250Y101997D01*
X109499D01*
X110749Y100747D01*
Y98248D01*
X109499Y96998D01*
X103155Y40185D02*
X110653D01*
Y43934D01*
X109403Y45184D01*
X104405D01*
X103155Y43934D01*
Y40185D01*
Y47683D02*
X110653D01*
Y51432D01*
X109403Y52681D01*
X104405D01*
X103155Y51432D01*
Y47683D01*
X110653Y60179D02*
Y55181D01*
X105655Y60179D01*
X104405D01*
X103155Y58930D01*
Y56430D01*
X104405Y55181D01*
X19003Y124499D02*
Y117001D01*
X22752D01*
X24001Y118251D01*
Y123249D01*
X22752Y124499D01*
X19003D01*
X26500D02*
Y117001D01*
X30249D01*
X31499Y118251D01*
Y123249D01*
X30249Y124499D01*
X26500D01*
X33998Y117001D02*
X36497D01*
X35248D01*
Y124499D01*
X33998Y123249D01*
X65001Y56500D02*
X63751Y55251D01*
Y52752D01*
X65001Y51502D01*
X69999D01*
X71249Y52752D01*
Y55251D01*
X69999Y56500D01*
X71249Y62748D02*
X63751D01*
X67500Y59000D01*
Y63998D01*
X64501Y98000D02*
X63251Y96751D01*
Y94252D01*
X64501Y93002D01*
X69499D01*
X70749Y94252D01*
Y96751D01*
X69499Y98000D01*
X64501Y100500D02*
X63251Y101749D01*
Y104248D01*
X64501Y105498D01*
X65750D01*
X67000Y104248D01*
Y102999D01*
Y104248D01*
X68250Y105498D01*
X69499D01*
X70749Y104248D01*
Y101749D01*
X69499Y100500D01*
X28001Y46750D02*
X26751Y45501D01*
Y43002D01*
X28001Y41752D01*
X32999D01*
X34249Y43002D01*
Y45501D01*
X32999Y46750D01*
X34249Y54248D02*
Y49250D01*
X29250Y54248D01*
X28001D01*
X26751Y52998D01*
Y50499D01*
X28001Y49250D01*
X12500Y65749D02*
X11250Y66999D01*
X8751D01*
X7502Y65749D01*
Y60751D01*
X8751Y59501D01*
X11250D01*
X12500Y60751D01*
X14999Y59501D02*
X17498D01*
X16249D01*
Y66999D01*
X14999Y65749D01*
M02*
