G04*
G04 #@! TF.GenerationSoftware,Altium Limited,Altium Designer,20.1.12 (249)*
G04*
G04 Layer_Physical_Order=1*
G04 Layer_Color=1930808*
%FSLAX44Y44*%
%MOMM*%
G71*
G04*
G04 #@! TF.SameCoordinates,15848DA5-C093-47F5-B49A-54F1C2627FDF*
G04*
G04*
G04 #@! TF.FilePolarity,Positive*
G04*
G01*
G75*
%ADD11C,0.2000*%
%ADD27R,0.5080X0.3560*%
%ADD28R,0.6000X0.5000*%
%ADD29R,0.5000X0.6000*%
%ADD30R,0.6000X0.5000*%
%ADD31R,1.8000X1.8000*%
%ADD32R,0.2000X0.8000*%
%ADD33R,0.8000X0.2000*%
%ADD34R,1.4000X2.8000*%
%ADD35R,1.4600X1.4600*%
G04:AMPARAMS|DCode=36|XSize=0.6mm|YSize=0.3mm|CornerRadius=0.075mm|HoleSize=0mm|Usage=FLASHONLY|Rotation=90.000|XOffset=0mm|YOffset=0mm|HoleType=Round|Shape=RoundedRectangle|*
%AMROUNDEDRECTD36*
21,1,0.6000,0.1500,0,0,90.0*
21,1,0.4500,0.3000,0,0,90.0*
1,1,0.1500,0.0750,0.2250*
1,1,0.1500,0.0750,-0.2250*
1,1,0.1500,-0.0750,-0.2250*
1,1,0.1500,-0.0750,0.2250*
%
%ADD36ROUNDEDRECTD36*%
%ADD37R,0.3000X0.6000*%
%ADD38C,0.3000*%
%ADD39C,0.4000*%
%ADD40C,0.2500*%
%ADD41C,0.7000*%
%ADD42C,3.0000*%
%ADD43C,0.4500*%
G36*
X26500Y133091D02*
X26726Y133129D01*
X27319Y133300D01*
X27890Y133537D01*
X28431Y133836D01*
X28935Y134193D01*
X29395Y134605D01*
X29586Y134818D01*
X30375Y134962D01*
X31164Y134818D01*
X31355Y134605D01*
X31815Y134193D01*
X32319Y133836D01*
X32860Y133537D01*
X33431Y133300D01*
X34024Y133129D01*
X34633Y133026D01*
X35250Y132991D01*
X35847Y133025D01*
X37170Y131702D01*
X36893Y130967D01*
X36570Y129902D01*
X36318Y128818D01*
X36136Y127720D01*
X36027Y126612D01*
X35991Y125500D01*
X36027Y124388D01*
X36136Y123280D01*
X36318Y122182D01*
X36570Y121098D01*
X36893Y120033D01*
X37285Y118991D01*
X37745Y117977D01*
X36983Y116750D01*
X26509D01*
Y121000D01*
X26472Y121471D01*
X26362Y121930D01*
X26181Y122366D01*
X25935Y122769D01*
X25628Y123128D01*
X18759Y129996D01*
Y133891D01*
X19185Y134193D01*
X19645Y134605D01*
X19836Y134818D01*
X20625Y134962D01*
X21414Y134818D01*
X21605Y134605D01*
X22065Y134193D01*
X22569Y133836D01*
X23110Y133537D01*
X23681Y133300D01*
X24274Y133129D01*
X24500Y133091D01*
Y138500D01*
X26500D01*
Y133091D01*
D02*
G37*
G36*
X3819Y130384D02*
X4065Y129981D01*
X4372Y129622D01*
X16491Y117503D01*
Y110750D01*
X16500Y110632D01*
Y106750D01*
X6500D01*
Y96749D01*
X12500D01*
Y94760D01*
X7000D01*
X7000Y94760D01*
X6882Y94750D01*
X6500D01*
Y94715D01*
X6070Y94612D01*
X5634Y94431D01*
X5231Y94185D01*
X4872Y93878D01*
X3758Y92764D01*
X2508Y93281D01*
Y130282D01*
X3744Y130564D01*
X3819Y130384D01*
D02*
G37*
G36*
X81950Y83541D02*
X81748Y83457D01*
X81379Y83231D01*
X81049Y82950D01*
X80768Y82621D01*
X80542Y82252D01*
X80377Y81852D01*
X80275Y81431D01*
X80241Y80999D01*
Y79749D01*
X83750D01*
Y78749D01*
X84750D01*
Y73744D01*
X85250Y73749D01*
X85250Y73749D01*
X87750D01*
Y78749D01*
X89750D01*
Y73749D01*
X90584D01*
X90947Y73040D01*
X91010Y72499D01*
X90738Y72262D01*
X90516Y72008D01*
X90177Y71820D01*
X89114Y71696D01*
X88865Y71779D01*
X88616Y71931D01*
X88180Y72112D01*
X87721Y72222D01*
X87250Y72259D01*
X71497D01*
X70259Y73496D01*
Y85986D01*
X70262Y85988D01*
X70629Y86407D01*
X70939Y86870D01*
X71185Y87370D01*
X71364Y87898D01*
X71473Y88444D01*
X71493Y88750D01*
X74251D01*
Y93750D01*
X75251D01*
Y94749D01*
X79750D01*
Y98706D01*
X79851Y98915D01*
X80355Y99749D01*
X81950D01*
Y83541D01*
D02*
G37*
G36*
X51768Y88550D02*
X51775Y88444D01*
X51883Y87898D01*
X52063Y87370D01*
X52309Y86870D01*
X52618Y86407D01*
X52986Y85988D01*
X53405Y85621D01*
X53868Y85311D01*
X54367Y85065D01*
X54895Y84886D01*
X55441Y84777D01*
X55997Y84741D01*
X56190Y84754D01*
X57055Y84181D01*
X57440Y83724D01*
Y70216D01*
X56407D01*
Y62656D01*
X64134D01*
X66521Y60270D01*
X66866Y59967D01*
X67247Y59712D01*
X67659Y59509D01*
X68093Y59362D01*
X68543Y59272D01*
X69001Y59242D01*
X70731D01*
X70750Y57992D01*
X70749Y57750D01*
X70750Y56508D01*
Y52738D01*
X69993Y52326D01*
X69500Y52255D01*
X66628Y55128D01*
X66269Y55435D01*
X65866Y55681D01*
X65430Y55862D01*
X64971Y55972D01*
X64500Y56009D01*
X53548D01*
X52618Y56780D01*
Y57657D01*
X52618D01*
X52618Y58030D01*
Y65216D01*
X44925D01*
X44000Y66000D01*
Y66407D01*
X44978Y67657D01*
X52618D01*
Y75216D01*
X44000D01*
Y76000D01*
X38500D01*
Y84750D01*
X48500D01*
Y88741D01*
X51577D01*
X51768Y88550D01*
D02*
G37*
G36*
X109992Y32250D02*
X102250D01*
Y35750D01*
X98750D01*
Y37750D01*
X102250D01*
Y41750D01*
X100550D01*
Y57750D01*
X102250D01*
Y67750D01*
X102250D01*
X102006Y69000D01*
X106378Y73372D01*
X106685Y73731D01*
X106931Y74134D01*
X107112Y74570D01*
X107222Y75029D01*
X107259Y75500D01*
Y101736D01*
X107262Y101738D01*
X107629Y102157D01*
X107938Y102620D01*
X108185Y103120D01*
X108364Y103648D01*
X108473Y104194D01*
X108509Y104750D01*
X108473Y105306D01*
X108364Y105852D01*
X108185Y106380D01*
X107938Y106880D01*
X107629Y107343D01*
X107262Y107762D01*
X106843Y108129D01*
X106379Y108439D01*
X105880Y108685D01*
X105352Y108864D01*
X104806Y108973D01*
X104250Y109009D01*
X103694Y108973D01*
X103500Y108934D01*
X102484Y109518D01*
X102250Y109749D01*
X102607Y110851D01*
X102878Y111122D01*
X103184Y111481D01*
X103431Y111884D01*
X103612Y112320D01*
X103722Y112779D01*
X103759Y113250D01*
Y115000D01*
X105500D01*
Y123750D01*
X105500Y124000D01*
Y125000D01*
X105500Y125250D01*
Y134000D01*
X87000D01*
X87000Y134000D01*
X85806Y133944D01*
X85250Y133908D01*
X84704Y133799D01*
X84176Y133620D01*
X83677Y133374D01*
X83213Y133064D01*
X82794Y132697D01*
X82427Y132278D01*
X82118Y131815D01*
X81871Y131315D01*
X81692Y130788D01*
X81583Y130241D01*
X81547Y129685D01*
X81583Y129129D01*
X81692Y128583D01*
X81871Y128055D01*
X82118Y127556D01*
X82427Y127093D01*
X82794Y126674D01*
X83213Y126306D01*
X83677Y125997D01*
X84176Y125750D01*
X84704Y125571D01*
X85250Y125463D01*
X85806Y125426D01*
X86564Y125155D01*
X86570Y124325D01*
X85804Y123719D01*
X85445Y123530D01*
X85000Y123559D01*
X84444Y123523D01*
X83898Y123414D01*
X83370Y123235D01*
X82871Y122989D01*
X82407Y122679D01*
X81988Y122312D01*
X81986Y122309D01*
X73692D01*
X73221Y122272D01*
X72762Y122162D01*
X72325Y121981D01*
X71923Y121735D01*
X71564Y121428D01*
X70519Y120383D01*
X69413Y121046D01*
X69429Y121098D01*
X69682Y122182D01*
X69863Y123280D01*
X69973Y124388D01*
X70009Y125500D01*
X69973Y126612D01*
X69863Y127720D01*
X69682Y128818D01*
X69429Y129902D01*
X69106Y130967D01*
X68714Y132009D01*
X68255Y133023D01*
X67730Y134005D01*
X67142Y134950D01*
X66494Y135855D01*
X65788Y136715D01*
X65027Y137527D01*
X64215Y138288D01*
X63354Y138994D01*
X62450Y139643D01*
X61504Y140230D01*
X60523Y140755D01*
X59509Y141214D01*
X59435Y141242D01*
X59662Y142492D01*
X109992D01*
Y32250D01*
D02*
G37*
G36*
X3758Y61319D02*
X4020Y61020D01*
X6020Y59020D01*
X6365Y58717D01*
X6746Y58462D01*
X7158Y58260D01*
X7592Y58112D01*
X8042Y58022D01*
X8500Y57993D01*
X15600D01*
X15870Y57811D01*
X16370Y57565D01*
X16898Y57386D01*
X17444Y57277D01*
X18000Y57241D01*
X18556Y57277D01*
X19102Y57386D01*
X19241Y57433D01*
X20181Y56945D01*
X20491Y56596D01*
Y55000D01*
X20528Y54529D01*
X20638Y54070D01*
X20819Y53634D01*
X21065Y53231D01*
X21372Y52872D01*
X28372Y45872D01*
X28731Y45566D01*
X29134Y45319D01*
X29570Y45138D01*
X30029Y45028D01*
X30500Y44991D01*
X34250D01*
Y43500D01*
X38751D01*
Y42500D01*
X39750D01*
Y37500D01*
X43250D01*
Y38089D01*
X43538Y39220D01*
X47077D01*
Y43000D01*
X48078D01*
Y44000D01*
X52618D01*
Y44991D01*
X56407D01*
Y44220D01*
X64491D01*
Y41000D01*
X64528Y40529D01*
X64638Y40070D01*
X64819Y39634D01*
X65065Y39231D01*
X65372Y38872D01*
X69622Y34622D01*
X69981Y34316D01*
X70384Y34069D01*
X70820Y33888D01*
X71279Y33778D01*
X71750Y33741D01*
X79182D01*
X79412Y33500D01*
X79198Y32780D01*
X78660Y32250D01*
X70250D01*
Y25477D01*
X69000Y25250D01*
X68714Y26009D01*
X68255Y27023D01*
X67730Y28005D01*
X67142Y28950D01*
X66494Y29855D01*
X65788Y30715D01*
X65027Y31527D01*
X64215Y32288D01*
X63354Y32994D01*
X62450Y33643D01*
X61504Y34230D01*
X60523Y34755D01*
X59509Y35214D01*
X58467Y35607D01*
X57402Y35930D01*
X56318Y36182D01*
X55220Y36364D01*
X54112Y36473D01*
X53000Y36509D01*
X51887Y36473D01*
X50780Y36364D01*
X49682Y36182D01*
X48597Y35930D01*
X47532Y35607D01*
X46491Y35214D01*
X45477Y34755D01*
X44495Y34230D01*
X43550Y33643D01*
X42645Y32994D01*
X41785Y32288D01*
X40972Y31527D01*
X40212Y30715D01*
X39506Y29855D01*
X38857Y28950D01*
X38270Y28005D01*
X37745Y27023D01*
X37285Y26009D01*
X36893Y24967D01*
X36570Y23902D01*
X36318Y22818D01*
X36136Y21720D01*
X36027Y20612D01*
X35991Y19500D01*
X36027Y18388D01*
X36136Y17280D01*
X36318Y16182D01*
X36570Y15098D01*
X36893Y14033D01*
X37285Y12991D01*
X37745Y11977D01*
X38270Y10996D01*
X38857Y10050D01*
X39506Y9146D01*
X40212Y8285D01*
X40972Y7473D01*
X41785Y6712D01*
X42645Y6006D01*
X43550Y5357D01*
X44495Y4770D01*
X45477Y4245D01*
X46491Y3786D01*
X46565Y3758D01*
X46337Y2508D01*
X2508D01*
Y60925D01*
X3596Y61321D01*
X3758Y61319D01*
D02*
G37*
%LPC*%
G36*
X79750Y92750D02*
X76251D01*
Y88750D01*
X79750D01*
Y92750D01*
D02*
G37*
G36*
X82750Y77749D02*
X80241D01*
Y76499D01*
X80275Y76068D01*
X80377Y75647D01*
X80542Y75247D01*
X80768Y74878D01*
X81049Y74549D01*
X81379Y74268D01*
X81748Y74042D01*
X82148Y73876D01*
X82569Y73775D01*
X82750Y73760D01*
Y77749D01*
D02*
G37*
G36*
X52618Y42000D02*
X49078D01*
Y39220D01*
X52618D01*
Y42000D01*
D02*
G37*
G36*
X37750Y41500D02*
X34250D01*
Y37500D01*
X37750D01*
Y41500D01*
D02*
G37*
%LPD*%
D11*
X6500Y131750D02*
Y138500D01*
X93750Y69250D02*
Y70500D01*
Y62750D02*
Y69250D01*
X85000Y119500D02*
X92000D01*
X55574Y89000D02*
X55997D01*
X52824Y91750D02*
X55574Y89000D01*
X42500Y91750D02*
X52824D01*
X67250Y72250D02*
Y89000D01*
X70250Y69250D02*
X87250D01*
X67250Y72250D02*
X70250Y69250D01*
X87250D02*
X88750Y67750D01*
Y62750D02*
Y67750D01*
X71167Y112250D02*
X79450D01*
X54667Y95750D02*
X71167Y112250D01*
X42500Y95750D02*
X54667D01*
X73692Y119300D02*
X85000D01*
X54141Y99750D02*
X73692Y119300D01*
X42500Y99750D02*
X54141D01*
X6000Y96922D02*
Y111250D01*
X93750Y78749D02*
X98750D01*
X88750D02*
X93750D01*
X7172Y95750D02*
X12500D01*
X6000Y96922D02*
X7172Y95750D01*
X5500Y90250D02*
X7000Y91750D01*
X12500D01*
X5500Y72250D02*
Y90250D01*
X23500Y55000D02*
Y80750D01*
X30500Y48000D02*
X60947D01*
X23500Y55000D02*
X30500Y48000D01*
X15750Y128750D02*
Y138500D01*
X23500Y110750D02*
Y121000D01*
X15750Y128750D02*
X23500Y121000D01*
X6500Y131750D02*
X19500Y118750D01*
Y110750D02*
Y118750D01*
X92000Y113000D02*
X93750Y111250D01*
Y104749D02*
Y111250D01*
X92000Y113000D02*
Y119500D01*
X98750Y62750D02*
Y70000D01*
X104250Y75500D02*
Y104750D01*
X98750Y70000D02*
X104250Y75500D01*
X98750Y104749D02*
X98751Y104750D01*
X104250D01*
X100500Y119500D02*
X100750Y119250D01*
Y113250D02*
Y119250D01*
X98750Y104749D02*
Y111250D01*
X100750Y113250D01*
X60947Y48000D02*
X60947Y48000D01*
X27500Y74500D02*
Y80750D01*
Y74500D02*
X30500Y71500D01*
X39000D01*
X48046Y71468D02*
X48078Y71437D01*
X39032Y71468D02*
X48046D01*
X39000Y71500D02*
X39032Y71468D01*
X39249Y53000D02*
X48078D01*
X38749Y53500D02*
X39249Y53000D01*
X48078D02*
X64500D01*
X67500Y50000D01*
Y41000D02*
X71750Y36750D01*
X67500Y41000D02*
Y50000D01*
X71750Y36750D02*
X83750D01*
D27*
X60947Y48000D02*
D03*
X48078Y43000D02*
D03*
Y53000D02*
D03*
X60947Y66437D02*
D03*
X48078Y61437D02*
D03*
Y71437D02*
D03*
D28*
X17250Y71501D02*
D03*
X6250Y71500D02*
D03*
D29*
X38750Y42500D02*
D03*
X38749Y53500D02*
D03*
X75251Y51750D02*
D03*
X75250Y62750D02*
D03*
Y104749D02*
D03*
X75251Y93750D02*
D03*
D30*
X39000Y61500D02*
D03*
Y71500D02*
D03*
X100500Y119500D02*
D03*
Y129500D02*
D03*
X92000Y119500D02*
D03*
Y129500D02*
D03*
D31*
X27500Y95750D02*
D03*
D32*
X19500Y110750D02*
D03*
X23500D02*
D03*
X27500D02*
D03*
X31500D02*
D03*
X35500D02*
D03*
Y80750D02*
D03*
X31500D02*
D03*
X27500D02*
D03*
X23500D02*
D03*
X19500D02*
D03*
D33*
X42500Y103750D02*
D03*
Y99750D02*
D03*
Y95750D02*
D03*
Y91750D02*
D03*
Y87750D02*
D03*
X12500D02*
D03*
Y91750D02*
D03*
Y95750D02*
D03*
Y99750D02*
D03*
Y103750D02*
D03*
D34*
X103250Y16250D02*
D03*
X79250D02*
D03*
D35*
X91250Y49750D02*
D03*
Y91749D02*
D03*
D36*
X83750Y36750D02*
D03*
Y78749D02*
D03*
D37*
X88750Y36750D02*
D03*
X93750D02*
D03*
X98750D02*
D03*
Y62750D02*
D03*
X93750D02*
D03*
X88750D02*
D03*
X83750D02*
D03*
X88750Y78749D02*
D03*
X93750D02*
D03*
X98750D02*
D03*
Y104749D02*
D03*
X93750D02*
D03*
X88750D02*
D03*
X83750D02*
D03*
D38*
X35250Y138500D02*
X36332D01*
Y137500D02*
X49332Y124500D01*
Y125500D02*
X53000D01*
X85899Y129592D02*
X100407D01*
X64285Y99057D02*
X69978Y104749D01*
X60947Y95737D02*
X64572Y99362D01*
X60947Y66437D02*
Y95737D01*
X64362Y99362D02*
X64572D01*
X100407Y129592D02*
X100500Y129500D01*
X85806Y129685D02*
X85899Y129592D01*
X16750Y71501D02*
X17250D01*
X12000Y76250D02*
X16750Y71501D01*
X12000Y76250D02*
Y80500D01*
X32032Y61468D02*
X48046D01*
X6250Y71500D02*
X6500Y71250D01*
X5500Y72250D02*
X6250Y71500D01*
X6500Y63500D02*
Y71250D01*
Y63500D02*
X8500Y61500D01*
X18000D01*
X47834Y24666D02*
X53000Y19500D01*
X75250Y104749D02*
X83750D01*
X69978D02*
X75250D01*
X88750Y104749D02*
Y110000D01*
X86250Y112500D02*
X88750Y110000D01*
X60947Y66437D02*
X65314D01*
X69001Y62750D02*
X75250D01*
X65314Y66437D02*
X69001Y62750D01*
X48046Y61468D02*
X48078Y61437D01*
X32000Y61500D02*
X32032Y61468D01*
X83750Y104749D02*
Y104749D01*
X75251Y45251D02*
Y51750D01*
X75250Y45250D02*
X75251Y45251D01*
D39*
X75250Y62750D02*
X83250D01*
X75250Y62750D02*
X75250Y62750D01*
D40*
X93750Y30250D02*
Y36750D01*
Y30250D02*
X95215Y28786D01*
X97500D01*
X103250Y23036D01*
Y16250D02*
Y23036D01*
X88750Y30250D02*
Y36750D01*
X87285Y28786D02*
X88750Y30250D01*
X85000Y28786D02*
X87285D01*
X79250Y23036D02*
X85000Y28786D01*
X79250Y16250D02*
Y23036D01*
D41*
X6500Y138500D02*
D03*
X15750D02*
D03*
X25500D02*
D03*
X35250D02*
D03*
D42*
X53000Y125500D02*
D03*
Y19500D02*
D03*
D43*
X30250Y120250D02*
D03*
X27250Y126000D02*
D03*
X33000D02*
D03*
X84500Y139500D02*
D03*
X77875D02*
D03*
X71250D02*
D03*
X68750Y55750D02*
D03*
X55997Y89000D02*
D03*
X67250D02*
D03*
X76000Y75250D02*
D03*
Y83500D02*
D03*
X64572Y99362D02*
D03*
X5750Y122250D02*
D03*
Y116000D02*
D03*
Y109750D02*
D03*
X106250Y49500D02*
D03*
Y43250D02*
D03*
Y37000D02*
D03*
X17750Y39750D02*
D03*
Y46000D02*
D03*
Y52250D02*
D03*
X85806Y129685D02*
D03*
X85000Y119300D02*
D03*
X79450Y112250D02*
D03*
X12000Y80500D02*
D03*
X18000Y61500D02*
D03*
X86250Y112500D02*
D03*
X93750Y69250D02*
D03*
X104250Y104750D02*
D03*
X32000Y61500D02*
D03*
X75250Y45250D02*
D03*
M02*
