G04*
G04 #@! TF.GenerationSoftware,Altium Limited,Altium Designer,20.0.11 (256)*
G04*
G04 Layer_Physical_Order=1*
G04 Layer_Color=1611583*
%FSLAX44Y44*%
%MOMM*%
G71*
G01*
G75*
%ADD10C,0.2000*%
%ADD11C,0.2500*%
%ADD19C,0.1000*%
%ADD29R,1.4600X1.4600*%
G04:AMPARAMS|DCode=30|XSize=0.6mm|YSize=0.3mm|CornerRadius=0.075mm|HoleSize=0mm|Usage=FLASHONLY|Rotation=90.000|XOffset=0mm|YOffset=0mm|HoleType=Round|Shape=RoundedRectangle|*
%AMROUNDEDRECTD30*
21,1,0.6000,0.1500,0,0,90.0*
21,1,0.4500,0.3000,0,0,90.0*
1,1,0.1500,0.0750,0.2250*
1,1,0.1500,0.0750,-0.2250*
1,1,0.1500,-0.0750,-0.2250*
1,1,0.1500,-0.0750,0.2250*
%
%ADD30ROUNDEDRECTD30*%
%ADD31R,0.3000X0.6000*%
%ADD32R,0.5000X0.6000*%
%ADD33R,0.3000X0.7000*%
%ADD34R,0.7000X0.3000*%
%ADD35R,0.6000X0.5000*%
%ADD36R,0.6000X0.5000*%
%ADD37R,1.4000X2.8000*%
%ADD38R,0.5200X0.3600*%
%ADD39R,0.5200X0.2700*%
%ADD40C,0.3000*%
%ADD41C,0.2800*%
%ADD42C,0.4500*%
%ADD43C,3.0000*%
G36*
X47463Y141492D02*
X46778Y141234D01*
X45764Y140775D01*
X44783Y140250D01*
X43837Y139663D01*
X42933Y139014D01*
X42072Y138308D01*
X41260Y137547D01*
X40499Y136735D01*
X39793Y135875D01*
X39144Y134970D01*
X38557Y134025D01*
X38032Y133043D01*
X37573Y132029D01*
X37181Y130987D01*
X36858Y129922D01*
X36605Y128838D01*
X36423Y127740D01*
X36314Y126632D01*
X36278Y125520D01*
X36314Y124408D01*
X36423Y123300D01*
X36605Y122202D01*
X36858Y121118D01*
X37181Y120053D01*
X37573Y119011D01*
X38032Y117997D01*
X38557Y117015D01*
X39144Y116070D01*
X39793Y115166D01*
X40499Y114305D01*
X41260Y113493D01*
X42072Y112732D01*
X42933Y112026D01*
X43837Y111377D01*
X44783Y110790D01*
X45764Y110265D01*
X46778Y109806D01*
X47820Y109414D01*
X48050Y109344D01*
X47902Y108343D01*
X33294D01*
Y109587D01*
X32205D01*
Y117891D01*
X23206D01*
X23205Y117891D01*
X22206Y117891D01*
X21986Y118891D01*
X22009Y119250D01*
X21973Y119806D01*
X21864Y120352D01*
X21685Y120880D01*
X21439Y121379D01*
X21129Y121843D01*
X20762Y122262D01*
X20343Y122629D01*
X19879Y122938D01*
X19380Y123185D01*
X18852Y123364D01*
X18306Y123473D01*
X17750Y123509D01*
X17194Y123473D01*
X16648Y123364D01*
X16120Y123185D01*
X15620Y122938D01*
X15157Y122629D01*
X14738Y122262D01*
X14371Y121843D01*
X14061Y121379D01*
X13815Y120880D01*
X13636Y120352D01*
X13527Y119806D01*
X13491Y119250D01*
X13514Y118891D01*
X13206Y117891D01*
X13206D01*
Y109586D01*
X12295D01*
Y106086D01*
X17295D01*
Y104086D01*
X12295D01*
Y101530D01*
X12212D01*
Y98030D01*
X17212D01*
Y96030D01*
X12212D01*
Y92530D01*
X13192D01*
Y89974D01*
X17692D01*
Y88975D01*
X18692D01*
Y83975D01*
X22192D01*
X22192Y83975D01*
X23191D01*
X23192Y83975D01*
X24434D01*
Y82250D01*
Y46809D01*
X24462Y46383D01*
X24546Y45965D01*
X24683Y45562D01*
X24871Y45180D01*
X25108Y44826D01*
X25389Y44505D01*
X34197Y35697D01*
X34517Y35416D01*
X34871Y35179D01*
X35254Y34991D01*
X35657Y34854D01*
X36075Y34771D01*
X36500Y34743D01*
X43681D01*
X43967Y33743D01*
X43837Y33663D01*
X42933Y33014D01*
X42072Y32308D01*
X41260Y31547D01*
X40499Y30735D01*
X39793Y29874D01*
X39144Y28970D01*
X38557Y28025D01*
X38032Y27043D01*
X37573Y26029D01*
X37181Y24987D01*
X36858Y23922D01*
X36605Y22838D01*
X36423Y21740D01*
X36314Y20633D01*
X36278Y19520D01*
X36314Y18408D01*
X36423Y17300D01*
X36605Y16202D01*
X36858Y15118D01*
X37181Y14053D01*
X37573Y13011D01*
X38032Y11997D01*
X38557Y11015D01*
X39144Y10070D01*
X39793Y9165D01*
X40499Y8305D01*
X41260Y7493D01*
X42072Y6732D01*
X42933Y6026D01*
X43837Y5378D01*
X44783Y4790D01*
X45764Y4265D01*
X46778Y3806D01*
X47569Y3508D01*
X47388Y2508D01*
X2508D01*
Y142492D01*
X47281D01*
X47463Y141492D01*
D02*
G37*
G36*
X63229Y95308D02*
X61729Y93808D01*
X60229Y93808D01*
Y98808D01*
X63229D01*
X63229Y95308D01*
D02*
G37*
G36*
X43228Y98808D02*
Y93808D01*
X41727Y93808D01*
X40228Y95308D01*
X40228Y98808D01*
X43228Y98808D01*
D02*
G37*
G36*
X68228Y93808D02*
Y90808D01*
X63228D01*
X63228Y92310D01*
X64728Y93809D01*
X68228Y93808D01*
D02*
G37*
G36*
X40229Y92310D02*
X40229Y90808D01*
X35229D01*
Y93808D01*
X38729Y93809D01*
X40229Y92310D01*
D02*
G37*
G36*
X68228Y70809D02*
X64728Y70809D01*
X63228Y72308D01*
X63228Y73809D01*
X68228D01*
Y70809D01*
D02*
G37*
G36*
X40229Y72308D02*
X38729Y70809D01*
X35229Y70809D01*
Y73809D01*
X40229D01*
X40229Y72308D01*
D02*
G37*
G36*
X43228Y70808D02*
Y65808D01*
X40228Y65809D01*
X40228Y69309D01*
X41727Y70809D01*
X43228Y70808D01*
D02*
G37*
G36*
X63229Y69309D02*
X63228Y65809D01*
X60229Y65808D01*
Y70808D01*
X61729Y70809D01*
X63229Y69309D01*
D02*
G37*
G36*
X109992Y32781D02*
X101783D01*
Y35943D01*
X98283D01*
Y37943D01*
X101783D01*
Y41943D01*
X100083D01*
Y57943D01*
X101783D01*
Y58039D01*
X101978Y58307D01*
X102783Y58809D01*
X102944Y58777D01*
X103500Y58741D01*
X104056Y58777D01*
X104602Y58886D01*
X105130Y59065D01*
X105630Y59311D01*
X106093Y59621D01*
X106512Y59988D01*
X106879Y60407D01*
X107189Y60870D01*
X107435Y61370D01*
X107614Y61898D01*
X107723Y62444D01*
X107759Y63000D01*
X107723Y63556D01*
X107614Y64102D01*
X107435Y64630D01*
X107189Y65130D01*
X106879Y65593D01*
X106512Y66012D01*
X106093Y66379D01*
X105809Y67495D01*
X105853Y67693D01*
X105977Y67857D01*
X106279D01*
Y76856D01*
X106279D01*
Y77856D01*
X106279D01*
Y86856D01*
X104787D01*
Y90719D01*
X106730Y92663D01*
X107033Y93008D01*
X107288Y93389D01*
X107491Y93800D01*
X107638Y94235D01*
X107727Y94685D01*
X107758Y95143D01*
Y102600D01*
X107938Y102871D01*
X108185Y103370D01*
X108364Y103898D01*
X108473Y104444D01*
X108509Y105000D01*
X108473Y105556D01*
X108364Y106102D01*
X108185Y106630D01*
X107938Y107129D01*
X107629Y107593D01*
X107262Y108012D01*
X106843Y108379D01*
X106379Y108688D01*
X105880Y108935D01*
X105352Y109114D01*
X104806Y109223D01*
X104752Y109226D01*
X104309Y110149D01*
X104806Y110777D01*
X105352Y110886D01*
X105880Y111065D01*
X106379Y111312D01*
X106843Y111621D01*
X107262Y111988D01*
X107629Y112407D01*
X107938Y112871D01*
X108185Y113370D01*
X108364Y113898D01*
X108473Y114444D01*
X108509Y115000D01*
X108473Y115556D01*
X108364Y116102D01*
X108185Y116630D01*
X107938Y117129D01*
X107629Y117593D01*
X107262Y118012D01*
X106843Y118379D01*
X106379Y118688D01*
X105880Y118935D01*
X105352Y119114D01*
X104806Y119223D01*
X104752Y119226D01*
X104309Y120149D01*
X104806Y120777D01*
X105352Y120886D01*
X105880Y121065D01*
X106379Y121312D01*
X106843Y121621D01*
X107262Y121988D01*
X107629Y122407D01*
X107938Y122871D01*
X108185Y123370D01*
X108364Y123898D01*
X108473Y124444D01*
X108509Y125000D01*
X108473Y125556D01*
X108364Y126102D01*
X108185Y126630D01*
X107938Y127129D01*
X107629Y127593D01*
X107262Y128012D01*
X106843Y128379D01*
X106379Y128688D01*
X105880Y128935D01*
X105352Y129114D01*
X104806Y129223D01*
X104250Y129259D01*
X103694Y129223D01*
X103148Y129114D01*
X102620Y128935D01*
X102120Y128688D01*
X101657Y128379D01*
X101238Y128012D01*
X100871Y127593D01*
X100562Y127129D01*
X100315Y126630D01*
X100136Y126102D01*
X100027Y125556D01*
X100015Y125371D01*
X82987Y108343D01*
X77482D01*
X77264Y108483D01*
X76703Y109344D01*
X76723Y109444D01*
X76759Y110000D01*
X76759Y110003D01*
X92128Y125372D01*
X92435Y125731D01*
X92681Y126134D01*
X92862Y126570D01*
X92972Y127029D01*
X93009Y127500D01*
Y131986D01*
X93012Y131988D01*
X93379Y132407D01*
X93688Y132871D01*
X93935Y133370D01*
X94114Y133898D01*
X94223Y134444D01*
X94259Y135000D01*
X94223Y135556D01*
X94114Y136102D01*
X93935Y136630D01*
X93688Y137129D01*
X93379Y137593D01*
X93012Y138012D01*
X92593Y138379D01*
X92130Y138688D01*
X91630Y138935D01*
X91102Y139114D01*
X90556Y139223D01*
X90000Y139259D01*
X89444Y139223D01*
X88898Y139114D01*
X88370Y138935D01*
X87870Y138688D01*
X87407Y138379D01*
X86988Y138012D01*
X86621Y137593D01*
X86312Y137129D01*
X86065Y136630D01*
X85886Y136102D01*
X85777Y135556D01*
X85741Y135000D01*
X85777Y134444D01*
X85886Y133898D01*
X86065Y133370D01*
X86312Y132871D01*
X86621Y132407D01*
X86988Y131988D01*
X86991Y131986D01*
Y128747D01*
X72503Y114259D01*
X72500Y114259D01*
X71944Y114223D01*
X71398Y114114D01*
X70870Y113935D01*
X70370Y113688D01*
X69907Y113379D01*
X69488Y113012D01*
X69121Y112593D01*
X68811Y112130D01*
X68565Y111630D01*
X68386Y111102D01*
X68277Y110556D01*
X68241Y110000D01*
X68277Y109444D01*
X68297Y109344D01*
X67736Y108483D01*
X67518Y108343D01*
X58672D01*
X58524Y109344D01*
X58754Y109414D01*
X59796Y109806D01*
X60810Y110265D01*
X61792Y110790D01*
X62737Y111377D01*
X63642Y112026D01*
X64502Y112732D01*
X65314Y113493D01*
X66075Y114305D01*
X66781Y115166D01*
X67430Y116070D01*
X68017Y117015D01*
X68542Y117997D01*
X69001Y119011D01*
X69394Y120053D01*
X69717Y121118D01*
X69969Y122202D01*
X70151Y123300D01*
X70260Y124408D01*
X70296Y125520D01*
X70260Y126632D01*
X70151Y127740D01*
X69969Y128838D01*
X69717Y129922D01*
X69394Y130987D01*
X69001Y132029D01*
X68542Y133043D01*
X68017Y134025D01*
X67430Y134970D01*
X66781Y135875D01*
X66075Y136735D01*
X65314Y137547D01*
X64502Y138308D01*
X63642Y139014D01*
X62737Y139663D01*
X61792Y140250D01*
X60810Y140775D01*
X59796Y141234D01*
X59111Y141492D01*
X59293Y142492D01*
X109992D01*
Y32781D01*
D02*
G37*
%LPC*%
G36*
X16692Y87975D02*
X13192D01*
Y83975D01*
X16692D01*
Y87975D01*
D02*
G37*
G36*
X105250Y139134D02*
Y136000D01*
X108384D01*
X108364Y136102D01*
X108185Y136630D01*
X107938Y137129D01*
X107629Y137593D01*
X107262Y138012D01*
X106843Y138379D01*
X106379Y138688D01*
X105880Y138935D01*
X105352Y139114D01*
X105250Y139134D01*
D02*
G37*
G36*
X103250Y139134D02*
X103148Y139114D01*
X102620Y138935D01*
X102120Y138688D01*
X101657Y138379D01*
X101238Y138012D01*
X100871Y137593D01*
X100562Y137129D01*
X100315Y136630D01*
X100136Y136102D01*
X100116Y136000D01*
X103250D01*
Y139134D01*
D02*
G37*
G36*
X108384Y134000D02*
X105250D01*
Y130866D01*
X105352Y130886D01*
X105880Y131065D01*
X106379Y131312D01*
X106843Y131621D01*
X107262Y131988D01*
X107629Y132407D01*
X107938Y132871D01*
X108185Y133370D01*
X108364Y133898D01*
X108384Y134000D01*
D02*
G37*
G36*
X103250D02*
X100116D01*
X100136Y133898D01*
X100315Y133370D01*
X100562Y132871D01*
X100871Y132407D01*
X101238Y131988D01*
X101657Y131621D01*
X102120Y131312D01*
X102620Y131065D01*
X103148Y130886D01*
X103250Y130866D01*
Y134000D01*
D02*
G37*
%LPD*%
D10*
X84500Y87750D02*
X91750Y95000D01*
X73750Y87750D02*
X84500D01*
X71750Y78750D02*
Y85750D01*
X73750Y87750D01*
X64728Y77309D02*
X70309D01*
X71750Y78750D01*
X90000Y127500D02*
Y135000D01*
X72500Y110000D02*
X90000Y127500D01*
X27705Y105675D02*
Y112891D01*
Y105675D02*
X28294Y105087D01*
X46728Y95308D02*
X46739Y95297D01*
Y88761D02*
Y95297D01*
Y88761D02*
X46750Y88750D01*
X98283Y62943D02*
X98340Y63000D01*
X103500D01*
X65479Y72309D02*
X75590D01*
X80684Y77402D02*
X92098D01*
X75590Y72309D02*
X80684Y77402D01*
X72538Y63123D02*
X80756Y71341D01*
X57877Y63123D02*
X72538D01*
X56728Y64272D02*
X57877Y63123D01*
X80756Y71341D02*
X84262D01*
X62860Y67573D02*
X70695D01*
X62787Y67500D02*
X62860Y67573D01*
X84262Y71341D02*
X85277Y72357D01*
X61728Y68558D02*
X62787Y67500D01*
X99750Y70827D02*
X101279Y72357D01*
X98250Y67000D02*
X99750Y68500D01*
Y70827D01*
X98250Y62976D02*
Y67000D01*
Y62976D02*
X98283Y62943D01*
X93283D02*
Y72352D01*
X93278Y72357D02*
X93283Y72352D01*
X86750Y68500D02*
X88250Y67000D01*
X86750Y68500D02*
Y70884D01*
X88250Y62976D02*
Y67000D01*
X85277Y72357D02*
X86750Y70884D01*
X88250Y62976D02*
X88283Y62943D01*
X93278Y72357D02*
Y76222D01*
X92098Y77402D02*
X93278Y76222D01*
X56728Y64272D02*
Y69308D01*
D11*
X62476Y55750D02*
X63442Y56715D01*
X54750Y55750D02*
X62476D01*
X50250Y38000D02*
X74500D01*
X47000D02*
X50250D01*
X36500D02*
X47000D01*
X74500Y51606D02*
Y60206D01*
X104625Y114625D02*
X105000Y115000D01*
X81559Y92309D02*
X104250Y115000D01*
X65479Y92309D02*
X81559D01*
X104625Y124625D02*
X105000Y125000D01*
X84337Y105087D02*
X104250Y125000D01*
X61750Y105087D02*
X84337D01*
X17706Y112891D02*
X17728Y112913D01*
Y119228D01*
X17750Y119250D01*
X34457Y97281D02*
X40451D01*
X28462D02*
X34457D01*
X28294Y105087D02*
X61750D01*
X61728Y96058D02*
Y105065D01*
X61750Y105087D01*
X74500Y60206D02*
X77237Y62943D01*
X83283D01*
X63061Y49942D02*
X72835D01*
X53286D02*
X63061D01*
X63424Y43482D02*
X63442Y43464D01*
X57268Y43482D02*
X63424D01*
X57250Y43500D02*
X57268Y43482D01*
X72835Y49942D02*
X74500Y51606D01*
X27692Y82250D02*
Y88975D01*
Y46809D02*
Y82250D01*
X27750Y82309D02*
X38728D01*
X27692Y82250D02*
X27750Y82309D01*
X50536Y38286D02*
Y41941D01*
X50250Y38000D02*
X50536Y38286D01*
X74500Y38000D02*
X83033D01*
X74441Y38059D02*
Y43465D01*
Y38059D02*
X74500Y38000D01*
X83283Y36943D02*
Y37750D01*
X83033Y38000D02*
X83283Y37750D01*
X27692Y46809D02*
X36500Y38000D01*
D19*
X61728Y96058D02*
D03*
X41728D02*
D03*
X37978Y92309D02*
D03*
Y72309D02*
D03*
X41728Y68558D02*
D03*
X61728Y68558D02*
D03*
X65479Y72309D02*
D03*
X65479Y92309D02*
D03*
D29*
X90783Y49943D02*
D03*
D30*
X83283Y36943D02*
D03*
D31*
X88283D02*
D03*
X93283D02*
D03*
X98283D02*
D03*
Y62943D02*
D03*
X93283D02*
D03*
X88283D02*
D03*
X83283D02*
D03*
D32*
X27705Y112891D02*
D03*
X17706Y112891D02*
D03*
X17692Y88975D02*
D03*
X27692D02*
D03*
D33*
X56728Y95308D02*
D03*
X51728Y95308D02*
D03*
X46728D02*
D03*
X46728Y69308D02*
D03*
X51728D02*
D03*
X56728D02*
D03*
D34*
X38728Y87309D02*
D03*
Y82309D02*
D03*
Y77309D02*
D03*
X64728D02*
D03*
Y82309D02*
D03*
X64728Y87309D02*
D03*
D35*
X17295Y105085D02*
D03*
X28294Y105087D02*
D03*
X28212Y97031D02*
D03*
X17212Y97030D02*
D03*
X63442Y56715D02*
D03*
X74441Y56716D02*
D03*
X63442Y43464D02*
D03*
X74441Y43465D02*
D03*
D36*
X85277Y72357D02*
D03*
X85277Y82356D02*
D03*
X93278Y72357D02*
D03*
Y82356D02*
D03*
X101279Y72357D02*
D03*
Y82356D02*
D03*
D37*
X78808Y16781D02*
D03*
X102808Y16781D02*
D03*
D38*
X40786Y45941D02*
D03*
D39*
X50536Y49942D02*
D03*
Y41941D02*
D03*
D40*
X85277Y82356D02*
X101279D01*
X79250D02*
X85277D01*
X104250Y95143D02*
Y105000D01*
X101279Y92172D02*
X104250Y95143D01*
X40786Y45941D02*
Y59811D01*
X34516Y66082D02*
X40786Y59811D01*
X39686Y46241D02*
X39986Y45941D01*
X40786D01*
X101279Y82356D02*
Y92172D01*
D41*
X84751Y29381D02*
X88232Y32862D01*
Y36843D01*
X93383Y32862D02*
Y36843D01*
X96864Y29381D02*
X97208D01*
X93383Y32862D02*
X96864Y29381D01*
X97208D02*
X97750Y28839D01*
Y28000D02*
Y28839D01*
X93283Y36943D02*
X93383Y36843D01*
D42*
X90000Y135000D02*
D03*
X104250Y105000D02*
D03*
Y125000D02*
D03*
Y115000D02*
D03*
Y135000D02*
D03*
X22500Y137500D02*
D03*
X15000D02*
D03*
X7500D02*
D03*
X22500Y7500D02*
D03*
X15000D02*
D03*
X7500D02*
D03*
X54750Y55750D02*
D03*
X34516Y66082D02*
D03*
X17750Y119250D02*
D03*
X91750Y95000D02*
D03*
X79250Y82250D02*
D03*
X34457Y97281D02*
D03*
X72500Y110000D02*
D03*
X46750Y88750D02*
D03*
X103500Y63000D02*
D03*
X70695Y67573D02*
D03*
X57250Y43500D02*
D03*
X63061Y49942D02*
D03*
D43*
X53287Y19520D02*
D03*
Y125520D02*
D03*
M02*
