G04*
G04 #@! TF.GenerationSoftware,Altium Limited,Altium Designer,20.0.11 (256)*
G04*
G04 Layer_Color=8388736*
%FSLAX44Y44*%
%MOMM*%
G71*
G01*
G75*
%ADD15R,1.5600X1.5600*%
G04:AMPARAMS|DCode=16|XSize=0.7mm|YSize=0.4mm|CornerRadius=0.125mm|HoleSize=0mm|Usage=FLASHONLY|Rotation=90.000|XOffset=0mm|YOffset=0mm|HoleType=Round|Shape=RoundedRectangle|*
%AMROUNDEDRECTD16*
21,1,0.7000,0.1500,0,0,90.0*
21,1,0.4500,0.4000,0,0,90.0*
1,1,0.2500,0.0750,0.2250*
1,1,0.2500,0.0750,-0.2250*
1,1,0.2500,-0.0750,-0.2250*
1,1,0.2500,-0.0750,0.2250*
%
%ADD16ROUNDEDRECTD16*%
%ADD17R,0.4000X0.7000*%
%ADD18R,0.6000X0.7000*%
%ADD19C,0.1000*%
%ADD20R,0.4000X0.8000*%
%ADD21R,0.8000X0.4000*%
%ADD22R,0.7000X0.6000*%
%ADD23R,0.7000X0.6000*%
%ADD24R,1.5000X2.9000*%
%ADD25R,0.6200X0.4600*%
%ADD26R,0.6200X0.3700*%
%ADD27C,0.5500*%
%ADD28C,3.1000*%
G36*
X43228Y71311D02*
X43286Y71305D01*
X43326Y71301D01*
X43326Y71301D01*
X43326D01*
X43404Y71278D01*
X43420Y71273D01*
X43420D01*
X43421Y71273D01*
X43462Y71250D01*
X43507Y71226D01*
X43507Y71226D01*
D01*
X43517Y71218D01*
X43583Y71164D01*
X43583Y71164D01*
X43583Y71164D01*
X43638Y71097D01*
X43646Y71087D01*
D01*
X43646Y71087D01*
X43670Y71042D01*
X43692Y71001D01*
X43692Y71000D01*
Y71000D01*
X43698Y70984D01*
X43721Y70906D01*
Y70906D01*
X43721Y70906D01*
X43725Y70866D01*
X43731Y70808D01*
Y65808D01*
X43721Y65710D01*
X43692Y65616D01*
X43646Y65529D01*
X43583Y65453D01*
X43507Y65391D01*
X43420Y65344D01*
X43326Y65316D01*
X43228Y65306D01*
X40228Y65306D01*
X40130Y65316D01*
X40036Y65344D01*
X39949Y65391D01*
X39887Y65442D01*
X39873Y65453D01*
Y65453D01*
X39873D01*
X39862Y65467D01*
X39811Y65529D01*
X39764Y65616D01*
X39735Y65710D01*
X39726Y65808D01*
X39726Y69309D01*
X39726Y69309D01*
X39732Y69368D01*
X39735Y69407D01*
X39750Y69457D01*
X39764Y69501D01*
X39810Y69588D01*
X39844Y69629D01*
X39873Y69664D01*
X39873Y69664D01*
X41372Y71164D01*
X41372Y71164D01*
X41372Y71164D01*
X41419Y71203D01*
X41448Y71227D01*
X41448Y71227D01*
X41448Y71227D01*
X41482Y71245D01*
X41535Y71273D01*
X41535Y71273D01*
X41535Y71273D01*
X41597Y71292D01*
X41629Y71302D01*
X41629D01*
X41629Y71302D01*
X41692Y71308D01*
X41727Y71311D01*
X41727Y71311D01*
X41727Y71311D01*
X43228Y71311D01*
D02*
G37*
G36*
X40286Y74306D02*
X40326Y74302D01*
X40326Y74302D01*
X40326D01*
X40404Y74278D01*
X40421Y74273D01*
X40421D01*
X40421Y74273D01*
X40489Y74236D01*
X40507Y74227D01*
X40507Y74226D01*
X40508Y74226D01*
X40554Y74189D01*
X40584Y74164D01*
X40584Y74164D01*
X40584Y74164D01*
X40608Y74134D01*
X40646Y74088D01*
X40646Y74088D01*
X40646Y74088D01*
X40656Y74069D01*
X40693Y74001D01*
X40693Y74001D01*
Y74001D01*
X40698Y73984D01*
X40721Y73907D01*
Y73907D01*
X40721Y73907D01*
X40725Y73867D01*
X40731Y73809D01*
X40731Y72308D01*
X40731Y72308D01*
X40725Y72243D01*
X40722Y72210D01*
X40722Y72210D01*
X40722Y72210D01*
X40704Y72152D01*
X40693Y72116D01*
X40693Y72116D01*
X40693Y72115D01*
X40651Y72037D01*
X40647Y72029D01*
X40647Y72029D01*
X40647Y72029D01*
X40615Y71990D01*
X40584Y71953D01*
X40584Y71953D01*
X40584Y71953D01*
X39084Y70454D01*
X39084Y70453D01*
X39049Y70425D01*
X39008Y70391D01*
X38921Y70345D01*
X38877Y70331D01*
X38827Y70316D01*
X38788Y70312D01*
X38729Y70306D01*
X38729Y70306D01*
X35229Y70306D01*
X35131Y70316D01*
X35036Y70345D01*
X34949Y70391D01*
X34887Y70442D01*
X34873Y70454D01*
Y70454D01*
X34873D01*
X34862Y70467D01*
X34811Y70530D01*
X34764Y70617D01*
X34736Y70711D01*
X34726Y70809D01*
Y73809D01*
X34736Y73907D01*
X34764Y74001D01*
X34811Y74088D01*
X34873Y74164D01*
X34949Y74226D01*
X35036Y74273D01*
X35131Y74302D01*
X35229Y74311D01*
X40229D01*
X40286Y74306D01*
D02*
G37*
G36*
X61764Y71308D02*
X61827Y71302D01*
X61828Y71302D01*
D01*
X61831Y71301D01*
X61922Y71273D01*
X61922Y71273D01*
X61922Y71273D01*
X61998Y71232D01*
X62009Y71227D01*
X62009Y71227D01*
X62009Y71227D01*
X62048Y71195D01*
X62085Y71164D01*
X62085Y71164D01*
X62085Y71164D01*
X63584Y69664D01*
X63584Y69664D01*
X63613Y69629D01*
X63646Y69588D01*
X63693Y69501D01*
X63706Y69457D01*
X63721Y69407D01*
X63725Y69368D01*
X63731Y69309D01*
X63731Y69309D01*
X63731Y65808D01*
X63721Y65710D01*
X63693Y65616D01*
X63646Y65529D01*
X63595Y65467D01*
X63584Y65453D01*
X63584D01*
Y65453D01*
X63570Y65442D01*
X63508Y65391D01*
X63421Y65344D01*
X63327Y65316D01*
X63228Y65306D01*
X60229Y65306D01*
X60131Y65316D01*
X60036Y65344D01*
X59949Y65391D01*
X59873Y65453D01*
X59811Y65529D01*
X59764Y65616D01*
X59736Y65710D01*
X59726Y65808D01*
Y70808D01*
X59732Y70866D01*
X59736Y70906D01*
X59736Y70906D01*
Y70906D01*
X59754Y70966D01*
X59764Y71000D01*
X59764Y71001D01*
X59764Y71001D01*
X59795Y71059D01*
X59811Y71087D01*
X59811Y71087D01*
X59811Y71087D01*
X59848Y71133D01*
X59873Y71164D01*
X59873Y71164D01*
X59873Y71164D01*
X59903Y71188D01*
X59949Y71226D01*
X59949Y71226D01*
X59949Y71226D01*
X59978Y71241D01*
X60036Y71273D01*
X60036Y71273D01*
X60036Y71273D01*
X60071Y71283D01*
X60130Y71301D01*
X60130D01*
X60131Y71301D01*
X60170Y71305D01*
X60228Y71311D01*
X61729Y71311D01*
X61729Y71311D01*
X61730Y71311D01*
X61764Y71308D01*
D02*
G37*
G36*
X68326Y74302D02*
X68421Y74273D01*
X68507Y74226D01*
X68584Y74164D01*
X68646Y74088D01*
X68692Y74001D01*
X68721Y73907D01*
X68731Y73809D01*
Y70809D01*
X68721Y70711D01*
X68692Y70617D01*
X68646Y70530D01*
X68595Y70467D01*
X68584Y70454D01*
X68584D01*
Y70454D01*
X68570Y70442D01*
X68507Y70391D01*
X68421Y70345D01*
X68326Y70316D01*
X68228Y70306D01*
X64728Y70306D01*
X64728Y70306D01*
X64668Y70312D01*
X64630Y70316D01*
X64580Y70331D01*
X64535Y70345D01*
X64449Y70391D01*
X64408Y70425D01*
X64372Y70453D01*
X64372Y70454D01*
X62873Y71952D01*
X62873Y71953D01*
X62873Y71953D01*
X62842Y71990D01*
X62810Y72029D01*
X62810Y72029D01*
X62810Y72029D01*
X62806Y72037D01*
X62764Y72115D01*
X62764Y72116D01*
X62764Y72116D01*
X62753Y72152D01*
X62735Y72210D01*
X62735Y72210D01*
X62735Y72210D01*
X62732Y72242D01*
X62725Y72308D01*
X62726Y72308D01*
D01*
X62726Y73809D01*
X62732Y73867D01*
X62736Y73907D01*
X62736Y73907D01*
Y73907D01*
X62759Y73984D01*
X62764Y74001D01*
Y74001D01*
X62764Y74001D01*
X62801Y74069D01*
X62811Y74088D01*
X62811Y74088D01*
X62811Y74088D01*
X62849Y74134D01*
X62873Y74164D01*
X62873Y74164D01*
X62873Y74164D01*
X62903Y74189D01*
X62949Y74226D01*
X62949Y74227D01*
X62949Y74227D01*
X62968Y74236D01*
X63036Y74273D01*
X63036Y74273D01*
X63036D01*
X63053Y74278D01*
X63130Y74302D01*
X63130D01*
X63130Y74302D01*
X63171Y74306D01*
X63228Y74311D01*
X68228D01*
X68326Y74302D01*
D02*
G37*
G36*
X40228Y99311D02*
X43228Y99311D01*
X43326Y99301D01*
X43420Y99272D01*
X43507Y99226D01*
X43583Y99164D01*
X43646Y99087D01*
X43692Y99001D01*
X43721Y98906D01*
X43731Y98808D01*
Y93808D01*
X43725Y93751D01*
X43721Y93710D01*
X43721Y93710D01*
Y93710D01*
X43698Y93633D01*
X43692Y93616D01*
Y93616D01*
X43692Y93616D01*
X43656Y93548D01*
X43646Y93529D01*
X43646Y93529D01*
X43646Y93529D01*
X43608Y93483D01*
X43583Y93453D01*
X43583Y93453D01*
X43583Y93453D01*
X43554Y93428D01*
X43507Y93391D01*
X43507Y93391D01*
X43507Y93391D01*
X43489Y93381D01*
X43421Y93344D01*
X43420Y93344D01*
X43420D01*
X43404Y93339D01*
X43326Y93316D01*
X43326D01*
X43326Y93316D01*
X43286Y93312D01*
X43228Y93306D01*
X41727Y93306D01*
D01*
X41727Y93305D01*
X41661Y93312D01*
X41629Y93315D01*
X41629Y93315D01*
X41629Y93315D01*
X41572Y93333D01*
X41535Y93344D01*
X41535Y93344D01*
X41535Y93344D01*
X41456Y93386D01*
X41448Y93390D01*
X41448Y93390D01*
X41448Y93390D01*
X41409Y93422D01*
X41372Y93453D01*
X41372Y93453D01*
X41372Y93453D01*
X39873Y94952D01*
X39873Y94952D01*
X39844Y94988D01*
X39810Y95029D01*
X39764Y95116D01*
X39750Y95160D01*
X39735Y95210D01*
X39732Y95248D01*
X39726Y95308D01*
X39726Y95308D01*
X39726Y98808D01*
X39735Y98906D01*
X39764Y99001D01*
X39811Y99087D01*
X39862Y99150D01*
X39873Y99164D01*
X39873D01*
Y99164D01*
X39887Y99175D01*
X39949Y99226D01*
X40036Y99272D01*
X40130Y99301D01*
X40228Y99311D01*
X40228D01*
D01*
D01*
D02*
G37*
G36*
X38788Y94305D02*
X38827Y94301D01*
X38877Y94286D01*
X38921Y94273D01*
X39008Y94226D01*
X39049Y94193D01*
X39084Y94164D01*
X39084Y94164D01*
X40584Y92665D01*
X40584Y92665D01*
X40584Y92665D01*
X40615Y92628D01*
X40647Y92589D01*
X40647Y92589D01*
X40647Y92589D01*
X40651Y92581D01*
X40693Y92502D01*
X40693Y92502D01*
X40693Y92502D01*
X40704Y92465D01*
X40722Y92408D01*
X40722Y92408D01*
X40722Y92407D01*
X40725Y92375D01*
X40731Y92310D01*
X40731Y92309D01*
D01*
X40731Y90808D01*
X40725Y90750D01*
X40721Y90710D01*
X40721Y90710D01*
Y90710D01*
X40698Y90633D01*
X40693Y90616D01*
Y90616D01*
X40693Y90616D01*
X40656Y90548D01*
X40646Y90529D01*
X40646Y90529D01*
X40646Y90529D01*
X40608Y90483D01*
X40584Y90453D01*
X40584Y90453D01*
X40584Y90453D01*
X40554Y90428D01*
X40508Y90391D01*
X40507Y90391D01*
X40507Y90391D01*
X40489Y90381D01*
X40421Y90344D01*
X40421Y90344D01*
X40421D01*
X40404Y90339D01*
X40326Y90316D01*
X40326D01*
X40326Y90316D01*
X40286Y90312D01*
X40229Y90306D01*
X35229D01*
X35131Y90316D01*
X35036Y90344D01*
X34949Y90391D01*
X34873Y90453D01*
X34811Y90529D01*
X34764Y90616D01*
X34736Y90710D01*
X34726Y90808D01*
Y93808D01*
X34736Y93906D01*
X34764Y94001D01*
X34811Y94088D01*
X34862Y94150D01*
X34873Y94164D01*
X34873D01*
Y94164D01*
X34887Y94175D01*
X34949Y94226D01*
X35036Y94273D01*
X35131Y94301D01*
X35229Y94311D01*
X38729Y94311D01*
X38729Y94311D01*
X38788Y94305D01*
D02*
G37*
G36*
X63327Y99301D02*
X63421Y99272D01*
X63508Y99226D01*
X63570Y99175D01*
X63584Y99164D01*
Y99164D01*
X63584D01*
X63595Y99150D01*
X63646Y99087D01*
X63693Y99001D01*
X63721Y98906D01*
X63731Y98808D01*
X63731Y95308D01*
X63731Y95308D01*
X63725Y95248D01*
X63721Y95210D01*
X63706Y95160D01*
X63693Y95116D01*
X63646Y95029D01*
X63613Y94988D01*
X63584Y94952D01*
X63584Y94952D01*
X62085Y93453D01*
X62085Y93453D01*
X62085Y93453D01*
X62048Y93422D01*
X62009Y93390D01*
X62009Y93390D01*
X62009Y93390D01*
X62001Y93386D01*
X61922Y93344D01*
X61922Y93344D01*
X61922Y93344D01*
X61832Y93316D01*
X61828Y93315D01*
D01*
X61827Y93315D01*
X61779Y93310D01*
X61730Y93306D01*
X61729Y93306D01*
D01*
X60228Y93306D01*
X60170Y93312D01*
X60131Y93316D01*
X60130Y93316D01*
X60130D01*
X60053Y93339D01*
X60036Y93344D01*
X60036D01*
X60036Y93344D01*
X59968Y93381D01*
X59949Y93391D01*
X59949Y93391D01*
X59949Y93391D01*
X59903Y93428D01*
X59873Y93453D01*
X59873Y93453D01*
X59873Y93453D01*
X59848Y93483D01*
X59811Y93529D01*
X59811Y93529D01*
X59811Y93529D01*
X59801Y93548D01*
X59764Y93616D01*
X59764Y93616D01*
Y93616D01*
X59759Y93633D01*
X59736Y93710D01*
Y93710D01*
X59736Y93710D01*
X59732Y93751D01*
X59726Y93808D01*
Y98808D01*
X59736Y98906D01*
X59764Y99001D01*
X59811Y99087D01*
X59873Y99164D01*
X59949Y99226D01*
X60036Y99272D01*
X60131Y99301D01*
X60229Y99311D01*
X63229D01*
X63327Y99301D01*
D02*
G37*
G36*
X64728Y94311D02*
X68228Y94311D01*
X68326Y94301D01*
X68421Y94273D01*
X68467Y94248D01*
X68507Y94226D01*
X68584Y94164D01*
Y94164D01*
X68584D01*
X68646Y94087D01*
X68668Y94047D01*
X68692Y94001D01*
X68721Y93906D01*
X68731Y93808D01*
Y90808D01*
X68721Y90710D01*
X68692Y90616D01*
X68646Y90529D01*
X68584Y90453D01*
X68507Y90391D01*
X68421Y90344D01*
X68326Y90316D01*
X68228Y90306D01*
X63228D01*
X63171Y90312D01*
X63130Y90316D01*
X63130Y90316D01*
X63130D01*
X63053Y90339D01*
X63036Y90344D01*
X63036D01*
X63036Y90344D01*
X62968Y90381D01*
X62949Y90391D01*
X62949Y90391D01*
X62949Y90391D01*
X62903Y90428D01*
X62873Y90453D01*
X62873Y90453D01*
X62873Y90453D01*
X62849Y90483D01*
X62811Y90529D01*
X62811Y90529D01*
X62811Y90529D01*
X62801Y90548D01*
X62764Y90616D01*
X62764Y90616D01*
Y90616D01*
X62759Y90633D01*
X62736Y90710D01*
Y90710D01*
X62736Y90710D01*
X62732Y90750D01*
X62726Y90808D01*
X62726Y92309D01*
X62726Y92310D01*
X62726Y92310D01*
X62729Y92345D01*
X62735Y92407D01*
X62735Y92408D01*
Y92408D01*
X62745Y92439D01*
X62764Y92502D01*
X62764Y92502D01*
X62764Y92502D01*
X62806Y92581D01*
X62810Y92589D01*
X62810Y92589D01*
X62810Y92589D01*
X62842Y92628D01*
X62873Y92665D01*
X62873Y92665D01*
X62873Y92665D01*
X64372Y94164D01*
X64373Y94164D01*
X64449Y94226D01*
X64449Y94226D01*
X64449Y94226D01*
X64536Y94273D01*
X64580Y94286D01*
X64630Y94301D01*
X64668Y94305D01*
X64728Y94311D01*
X64728Y94311D01*
D02*
G37*
D15*
X90783Y49943D02*
D03*
D16*
X83283Y36943D02*
D03*
D17*
X88283D02*
D03*
X93283D02*
D03*
X98283D02*
D03*
Y62943D02*
D03*
X93283D02*
D03*
X88283D02*
D03*
X83283D02*
D03*
D18*
X27705Y112891D02*
D03*
X17706Y112891D02*
D03*
X17692Y88975D02*
D03*
X27692D02*
D03*
D19*
X61728Y96058D02*
D03*
X41728D02*
D03*
X37978Y92309D02*
D03*
Y72309D02*
D03*
X41728Y68558D02*
D03*
X61728Y68558D02*
D03*
X65479Y72309D02*
D03*
X65479Y92309D02*
D03*
D20*
X56728Y95308D02*
D03*
X51728Y95308D02*
D03*
X46728D02*
D03*
X46728Y69308D02*
D03*
X51728D02*
D03*
X56728D02*
D03*
D21*
X38728Y87309D02*
D03*
Y82309D02*
D03*
Y77309D02*
D03*
X64728D02*
D03*
Y82309D02*
D03*
X64728Y87309D02*
D03*
D22*
X17295Y105085D02*
D03*
X28294Y105087D02*
D03*
X28212Y97031D02*
D03*
X17212Y97030D02*
D03*
X63442Y56715D02*
D03*
X74441Y56716D02*
D03*
X63442Y43464D02*
D03*
X74441Y43465D02*
D03*
D23*
X85277Y72357D02*
D03*
X85277Y82356D02*
D03*
X93278Y72357D02*
D03*
Y82356D02*
D03*
X101279Y72357D02*
D03*
Y82356D02*
D03*
D24*
X78808Y16781D02*
D03*
X102808Y16781D02*
D03*
D25*
X40786Y45941D02*
D03*
D26*
X50536Y49942D02*
D03*
Y41941D02*
D03*
D27*
X90000Y135000D02*
D03*
X104250Y105000D02*
D03*
Y125000D02*
D03*
Y115000D02*
D03*
Y135000D02*
D03*
D28*
X53287Y19520D02*
D03*
Y125520D02*
D03*
M02*
