M48
;Layer_Color=9474304
;FILE_FORMAT=4:4
METRIC,LZ
;TYPE=PLATED
T1F00S00C0.2000
T2F00S00C1.9000
%
T01
X000075Y000075
X00015
X000225
X00034516Y00066082
X0005475Y0005575
X00063061Y00049942
X0005725Y000435
X00070695Y00067573
X0007925Y0008225
X0009175Y00095
X0010425Y00105
Y00115
Y00125
Y00135
X0009
X000725Y0011
X0004675Y0008875
X00034457Y00097281
X0001775Y0011925
X00015Y001375
X000075
X000225
X001035Y00063
T02
X00053287Y0001952
Y0012552
M30
